<svg width="399" height="399" viewBox="0 0 399 399" fill="none" xmlns="http://www.w3.org/2000/svg">
<g>
<path d="M369.738 132.978C357.436 120.675 337.418 120.676 325.112 132.981C321.327 136.769 297.161 160.954 293.47 164.65V81.3007C293.47 72.8726 290.187 64.9493 284.227 58.9901L254.48 29.2414C248.521 23.2815 240.597 20 232.169 20H51.5653C34.1671 20 20.0125 34.1546 20.0125 51.5527V347.447C20.0125 364.845 34.1671 379 51.5653 379H261.917C279.315 379 293.47 364.845 293.47 347.447V253.933L369.737 177.6C382.069 165.269 382.072 145.31 369.738 132.978ZM230.365 41.0352C232.352 41.0352 236.181 40.6909 239.606 44.1154L269.354 73.864C272.692 77.2023 272.435 80.8603 272.435 83.1055H230.365V41.0352ZM272.434 347.447C272.434 353.247 267.717 357.965 261.917 357.965H51.5653C45.7659 357.965 41.0477 353.247 41.0477 347.447V51.5527C41.0477 45.7533 45.7659 41.0352 51.5653 41.0352H209.329V93.623C209.329 99.4316 214.038 104.141 219.847 104.141H272.434V185.703C272.434 185.703 241.405 216.759 241.403 216.76L226.536 231.628C225.382 232.782 224.511 234.19 223.995 235.739L209.121 280.361C207.861 284.141 208.844 288.308 211.662 291.124C214.483 293.945 218.651 294.924 222.425 293.665L267.047 278.791C268.596 278.275 270.004 277.405 271.158 276.25L272.434 274.974V347.447ZM248.847 239.065L263.721 253.939L258.039 259.621L235.729 267.057L243.165 244.746L248.847 239.065ZM278.592 239.062L263.718 224.188C271.639 216.261 306.816 181.054 314.276 173.587L329.15 188.461L278.592 239.062ZM354.861 162.729L344.018 173.58L329.145 158.707L339.99 147.852C344.094 143.751 350.764 143.751 354.865 147.852C358.965 151.954 358.986 158.603 354.861 162.729Z" fill="#55F90D"/>
<path d="M219.847 125.176H72.6005C66.792 125.176 62.0829 129.885 62.0829 135.693C62.0829 141.502 66.792 146.211 72.6005 146.211H219.847C225.655 146.211 230.364 141.502 230.364 135.693C230.364 129.885 225.655 125.176 219.847 125.176Z" fill="#55F90D"/>
<path d="M177.776 167.246H72.6005C66.792 167.246 62.0829 171.955 62.0829 177.764C62.0829 183.572 66.792 188.281 72.6005 188.281H177.776C183.585 188.281 188.294 183.572 188.294 177.764C188.294 171.955 183.585 167.246 177.776 167.246Z" fill="#55F90D"/>
<path d="M177.776 209.316H72.6005C66.792 209.316 62.0829 214.025 62.0829 219.834C62.0829 225.642 66.792 230.352 72.6005 230.352H177.776C183.585 230.352 188.294 225.642 188.294 219.834C188.294 214.025 183.585 209.316 177.776 209.316Z" fill="#55F90D"/>
<path d="M177.776 251.387H72.6005C66.792 251.387 62.0829 256.096 62.0829 261.904C62.0829 267.713 66.792 272.422 72.6005 272.422H177.776C183.585 272.422 188.294 267.713 188.294 261.904C188.294 256.096 183.585 251.387 177.776 251.387Z" fill="#55F90D"/>
<path d="M219.847 315.895H156.741C150.933 315.895 146.224 320.604 146.224 326.412C146.224 332.221 150.933 336.93 156.741 336.93H219.847C225.655 336.93 230.364 332.221 230.364 326.412C230.364 320.604 225.655 315.895 219.847 315.895Z" fill="#55F90D"/>
</g>
<defs>
</defs>
</svg>
