<svg width="272" height="272" viewBox="0 0 272 272" fill="none" xmlns="http://www.w3.org/2000/svg">
<g clip-path="url(#clip0)">
<path d="M270.009 219.036L183.339 132.366L248.385 67.3201C248.821 66.8839 249.13 66.3705 249.321 65.8248C249.328 65.8068 249.337 65.7904 249.343 65.7724L260.554 34.0135C260.555 34.0119 260.556 34.0104 260.556 34.0088L270.367 6.21486C270.877 4.77253 270.511 3.16611 269.43 2.08423C268.348 1.00235 266.741 0.638191 265.299 1.14737L237.506 10.9584C237.506 10.9584 237.504 10.959 237.504 10.959L205.741 22.171C205.723 22.1779 205.706 22.1875 205.687 22.1943C205.142 22.3849 204.629 22.694 204.193 23.1296L168.961 58.3617C167.41 59.9126 167.41 62.4278 168.961 63.9781C170.512 65.5289 173.027 65.5295 174.578 63.9781L207.002 31.5544L239.958 64.5111L154.577 149.894L129.685 174.786C129.685 174.786 129.684 174.787 129.684 174.788L84.8261 219.646L51.87 186.689L163.329 75.2299C164.88 73.679 164.88 71.1638 163.329 69.613C161.777 68.0616 159.263 68.0627 157.712 69.613L139.148 88.1765L127.275 76.3033C127.274 76.3022 127.274 76.3017 127.273 76.3007C127.271 76.2996 127.271 76.2991 127.27 76.298L110.318 59.3457C110.317 59.3446 110.316 59.3436 110.315 59.343C110.314 59.342 110.313 59.3414 110.312 59.3404L93.3632 42.3912C93.3616 42.3897 93.36 42.3875 93.3584 42.386C93.3568 42.3844 93.3547 42.3828 93.3531 42.3812L52.3644 1.39244C51.6191 0.64666 50.6087 0.228516 49.5554 0.228516C48.5021 0.228516 47.4922 0.64666 46.7464 1.39191L1.51905 46.6198C-0.0317915 48.1706 -0.0317915 50.6859 1.51905 52.2362L18.8863 69.6035C20.4372 71.1543 22.9519 71.1548 24.5038 69.6035C26.0546 68.0521 26.0546 65.5374 24.5038 63.9871L9.9444 49.4277L49.5549 9.81726L67.9749 28.2373L56.8909 39.3224C55.3395 40.8732 55.3395 43.3884 56.8909 44.9388C57.6669 45.7142 58.6836 46.1021 59.6999 46.1021C60.7161 46.1021 61.7329 45.7147 62.5089 44.9388L73.5934 33.8542L84.9336 45.1944L68.2327 61.8953C66.6818 63.4461 66.6818 65.9614 68.2327 67.5117C69.0086 68.2876 70.0249 68.6751 71.0416 68.6751C72.0579 68.6751 73.0747 68.2876 73.8506 67.5117L90.5515 50.8113L101.892 62.1515L90.8067 73.236C89.2553 74.7869 89.2553 77.3016 90.8061 78.8524C91.5821 79.6283 92.5983 80.0158 93.6151 80.0158C94.6314 80.0158 95.6481 79.6283 96.4236 78.8524L107.509 67.7679L118.849 79.108L102.148 95.8089C100.597 97.3603 100.597 99.875 102.148 101.425C102.924 102.201 103.941 102.589 104.957 102.589C105.973 102.589 106.99 102.201 107.766 101.425L124.466 84.7249L133.534 93.7929L128.464 98.863L93.9232 133.404L35.799 75.2818C34.2471 73.7309 31.7329 73.7309 30.1821 75.2818C28.6312 76.8326 28.6312 79.3478 30.1821 80.8981L88.3041 139.021L5.30511 222.02C2.06899 225.255 0.286316 229.558 0.286316 234.135C0.286316 238.712 2.06846 243.014 5.30458 246.25L25.2649 266.21C28.501 269.446 32.8037 271.229 37.3805 271.229C41.9568 271.229 46.26 269.446 49.4956 266.21L66.766 248.94C66.7676 248.938 66.7692 248.936 66.7708 248.935L87.6346 228.071L132.494 183.212L154.643 205.361C156.195 206.912 158.709 206.912 160.26 205.361C161.811 203.81 161.811 201.295 160.26 199.744L138.11 177.595L159.911 155.794L177.721 137.984L186.673 146.937L175.589 158.022C174.038 159.573 174.038 162.088 175.589 163.639C176.365 164.414 177.382 164.802 178.398 164.802C179.414 164.802 180.431 164.415 181.207 163.639L192.291 152.554L203.632 163.895L186.931 180.595C185.38 182.146 185.38 184.661 186.931 186.212C187.707 186.988 188.723 187.376 189.74 187.376C190.756 187.376 191.773 186.988 192.549 186.212L209.25 169.511L220.59 180.852L209.505 191.937C207.954 193.488 207.954 196.003 209.505 197.553C210.281 198.328 211.297 198.716 212.314 198.716C213.33 198.716 214.347 198.329 215.123 197.553L226.207 186.469L237.547 197.809L220.846 214.51C219.296 216.06 219.296 218.576 220.846 220.126C221.622 220.902 222.639 221.29 223.655 221.29C224.672 221.29 225.688 220.902 226.464 220.126L243.165 203.426L261.585 221.846L221.973 261.458L171.813 211.298C170.262 209.747 167.747 209.747 166.196 211.298C164.645 212.849 164.645 215.364 166.196 216.914L219.164 269.883C219.94 270.658 220.957 271.046 221.973 271.046C222.99 271.046 224.006 270.659 224.782 269.883L270.01 224.655C270.755 223.91 271.173 222.9 271.173 221.847C271.171 220.791 270.753 219.78 270.009 219.036ZM260.112 11.403L255.163 25.4225L246.093 16.352L260.112 11.403ZM214.329 27.5646L237.79 19.2827L252.233 33.7251L243.951 57.1862L214.329 27.5646ZM43.8781 260.593C42.1426 262.329 39.8348 263.285 37.3805 263.285C34.9256 263.285 32.6179 262.329 30.8828 260.593L10.922 240.633C9.18644 238.897 8.23053 236.59 8.23053 234.135C8.23053 231.681 9.18644 229.372 10.9225 227.637L25.3835 213.176L58.3406 246.133L43.8781 260.593ZM63.957 240.514L30.9998 207.558L46.252 192.306L79.2092 225.263L63.957 240.514Z" fill="#55F90D" fill-opacity="0.3"/>
</g>
<defs>
<clipPath id="clip0">
<rect x="0.228699" y="0.228516" width="271" height="271" fill="white"/>
</clipPath>
</defs>
</svg>
