<svg width="212" height="212" viewBox="0 0 212 212" fill="none" xmlns="http://www.w3.org/2000/svg">
<path d="M146.578 26.5H124.219V25.4341C124.219 18.8188 118.838 13.436 112.221 13.436H104.543C101.039 5.38928 93.0153 0 84.0401 0H83.2411C74.266 0 66.2419 5.38928 62.7386 13.436H55.0606C48.4437 13.436 43.0625 18.8188 43.0625 25.4341V26.5H20.7031C7.73941 26.5 0 32.6915 0 43.0625V191.297C0 202.713 9.28729 212 20.7031 212H146.578C157.994 212 167.281 202.713 167.281 191.297V97.5813C167.281 95.2942 165.428 93.4406 163.141 93.4406C160.854 93.4406 159 95.2942 159 97.5813V191.297C159 198.147 153.428 203.719 146.578 203.719H20.7031C13.8533 203.719 8.28125 198.147 8.28125 191.297V43.0625C8.28125 41.0148 8.28125 34.7812 20.7031 34.7812H43.0625V40.5781C43.0625 42.8652 44.9161 44.7188 47.2031 44.7188H120.078C122.365 44.7188 124.219 42.8652 124.219 40.5781V34.7812H146.578C153.428 34.7812 159 40.3533 159 47.2031V61.1438C159 63.4308 160.854 65.2844 163.141 65.2844C165.428 65.2844 167.281 63.4308 167.281 61.1438V47.2031C167.281 35.7873 157.994 26.5 146.578 26.5ZM115.938 36.4375H51.3438V25.4341C51.3438 23.3848 53.0113 21.7173 55.0606 21.7173H65.6613C67.531 21.7173 69.1678 20.4654 69.6579 18.6619C71.3158 12.5497 76.9024 8.28125 83.2411 8.28125H84.0401C90.3788 8.28125 95.9655 12.5497 97.6249 18.6619C98.1134 20.4654 99.7519 21.7173 101.62 21.7173H112.222C114.272 21.7173 115.938 23.3848 115.938 25.4341V36.4375Z" fill="#55F90D"/>
<path d="M163.141 74.3291C162.052 74.3291 160.983 74.7674 160.213 75.5373C159.443 76.3121 159 77.3763 159 78.4649C159 79.5583 159.443 80.6225 160.213 81.3957C160.983 82.1672 162.052 82.6104 163.141 82.6104C164.229 82.6104 165.298 82.1672 166.068 81.3957C166.838 80.6258 167.281 79.5583 167.281 78.4649C167.281 77.3763 166.838 76.3072 166.068 75.5373C165.298 74.7674 164.229 74.3291 163.141 74.3291Z" fill="#55F90D"/>
<path d="M207.859 133.328C206.771 133.328 205.702 133.771 204.932 134.541C204.162 135.311 203.719 136.38 203.719 137.469C203.719 138.557 204.162 139.626 204.932 140.396C205.702 141.166 206.771 141.609 207.859 141.609C208.948 141.609 210.017 141.166 210.787 140.396C211.557 139.626 212 138.557 212 137.469C212 136.38 211.557 135.311 210.787 134.541C210.017 133.771 208.948 133.328 207.859 133.328Z" fill="#55F90D"/>
<path d="M211.639 76.7762L198.389 47.1675C197.721 45.6779 196.241 44.7188 194.609 44.7188C192.977 44.7188 191.497 45.6779 190.829 47.1675L177.579 76.7762C177.342 77.3068 177.219 77.8842 177.219 78.4665V202.114C177.219 207.565 181.654 212 187.104 212H202.114C207.565 212 212 207.565 212 202.114V155.55C212 153.263 210.146 151.409 207.859 151.409C205.572 151.409 203.719 153.263 203.719 155.55V184.5H185.5V82.6071H203.719V120.824C203.719 123.111 205.572 124.964 207.859 124.964C210.146 124.964 212 123.111 212 120.824V78.4665C212 77.8842 211.877 77.3068 211.639 76.7762ZM194.609 58.9958L201.471 74.3258H187.748L194.609 58.9958ZM203.719 192.782V202.114C203.719 202.999 202.999 203.719 202.114 203.719H187.104C186.22 203.719 185.5 202.999 185.5 202.114V192.782H203.719Z" fill="#55F90D"/>
<path d="M48.7219 59.625C39.1322 59.625 31.3313 67.4259 31.3313 77.0156C31.3313 86.6054 39.1322 94.4062 48.7219 94.4062C58.3101 94.4062 66.1125 86.6054 66.1125 77.0156C66.1125 67.4259 58.3101 59.625 48.7219 59.625ZM48.7219 86.125C43.6982 86.125 39.6125 82.0394 39.6125 77.0156C39.6125 71.9919 43.6982 67.9062 48.7219 67.9062C53.744 67.9062 57.8313 71.9919 57.8313 77.0156C57.8313 82.0394 53.744 86.125 48.7219 86.125Z" fill="#55F90D"/>
<path d="M48.7219 109.312C39.1322 109.312 31.3313 117.113 31.3313 126.703C31.3313 136.293 39.1322 144.094 48.7219 144.094C58.3101 144.094 66.1125 136.293 66.1125 126.703C66.1125 117.113 58.3101 109.312 48.7219 109.312ZM48.7219 135.812C43.6982 135.812 39.6125 131.727 39.6125 126.703C39.6125 121.679 43.6982 117.594 48.7219 117.594C53.744 117.594 57.8313 121.679 57.8313 126.703C57.8313 131.727 53.744 135.812 48.7219 135.812Z" fill="#55F90D"/>
<path d="M48.7219 159C39.1322 159 31.3313 166.801 31.3313 176.391C31.3313 185.98 39.1322 193.781 48.7219 193.781C58.3101 193.781 66.1125 185.98 66.1125 176.391C66.1125 166.801 58.3101 159 48.7219 159ZM48.7219 185.5C43.6982 185.5 39.6125 181.414 39.6125 176.391C39.6125 171.367 43.6982 167.281 48.7219 167.281C53.744 167.281 57.8313 171.367 57.8313 176.391C57.8313 181.414 53.744 185.5 48.7219 185.5Z" fill="#55F90D"/>
<path d="M131.809 86.125H84.3313C82.0443 86.125 80.1907 87.9786 80.1907 90.2656C80.1907 92.5527 82.0443 94.4062 84.3313 94.4062H131.811C134.096 94.4062 135.952 92.5527 135.952 90.2656C135.952 87.9786 134.096 86.125 131.809 86.125Z" fill="#55F90D"/>
<path d="M131.809 66.25H84.3313C82.0443 66.25 80.1907 68.1036 80.1907 70.3906C80.1907 72.6777 82.0443 74.5312 84.3313 74.5312H131.811C134.096 74.5312 135.952 72.6777 135.952 70.3906C135.952 68.1036 134.096 66.25 131.809 66.25Z" fill="#55F90D"/>
<path d="M131.809 135.812H84.3313C82.0443 135.812 80.1907 137.666 80.1907 139.953C80.1907 142.24 82.0443 144.094 84.3313 144.094H131.811C134.096 144.094 135.952 142.24 135.952 139.953C135.952 137.666 134.096 135.812 131.809 135.812Z" fill="#55F90D"/>
<path d="M131.809 115.938H84.3313C82.0443 115.938 80.1907 117.791 80.1907 120.078C80.1907 122.365 82.0443 124.219 84.3313 124.219H131.811C134.096 124.219 135.952 122.365 135.952 120.078C135.952 117.791 134.096 115.938 131.809 115.938Z" fill="#55F90D"/>
<path d="M131.809 185.5H84.3313C82.0443 185.5 80.1907 187.354 80.1907 189.641C80.1907 191.928 82.0443 193.781 84.3313 193.781H131.811C134.096 193.781 135.952 191.928 135.952 189.641C135.952 187.354 134.096 185.5 131.809 185.5Z" fill="#55F90D"/>
<path d="M131.809 165.625H84.3313C82.0443 165.625 80.1907 167.479 80.1907 169.766C80.1907 172.053 82.0443 173.906 84.3313 173.906H131.811C134.096 173.906 135.952 172.053 135.952 169.766C135.952 167.479 134.096 165.625 131.809 165.625Z" fill="#55F90D"/>
</svg>
