<svg width="98" height="98" viewBox="0 0 98 98" fill="none" xmlns="http://www.w3.org/2000/svg">
<g clip-path="url(#clip0)">
<path d="M45.6837 18.6928C41.2342 18.6928 37.6272 15.0858 37.6272 10.6363C37.6272 6.18685 41.2342 2.57983 45.6837 2.57983C50.1332 2.57983 53.7402 6.18685 53.7402 10.6363C53.7402 15.0858 50.1332 18.6928 45.6837 18.6928Z" fill="#55F90D"/>
<path d="M25.5992 32.3566C27.3354 28.5912 29.5481 25.0131 32.8501 22.4259C33.2056 22.1479 33.5744 21.9626 33.9489 21.8207C33.9735 21.7905 33.9886 21.7564 34.0132 21.7281C39.7605 18.8421 52.5583 20.1527 56.4598 20.9546L56.4655 21.0718C62.3471 17.1457 65.5886 10.1047 66.7328 3.09975C67.6217 -2.33366 75.8616 -0.0207265 74.9803 5.37297C73.2253 16.1112 66.9238 25.9984 56.9572 30.4389L57.0196 31.6209C57.012 37.5309 56.9799 59.7109 56.9799 60.0248L56.8229 93.3023C56.8229 95.8498 54.701 97.9131 52.0855 97.9131C49.4681 97.9131 47.3461 95.8479 47.3461 93.3023V61.0574C47.3461 61.0574 47.3896 59.465 45.7254 59.4839C44.0592 59.4991 43.9098 61.1349 43.9098 61.1349V93.3893C43.9098 95.9349 41.786 98.0001 39.1705 98.0001C36.5512 98.0001 34.6902 95.933 34.6902 93.3893V62.4323L34.7054 57.5228C31.0043 55.1474 28.1259 51.7243 26.0607 47.8512C24.9184 45.7236 22.9516 42.7563 22.9516 40.224C22.9516 37.6425 24.5572 34.609 25.5992 32.3566ZM31.0024 40.6608C31.5092 41.7918 32.0255 42.9246 32.6421 44.0007C33.2851 45.1222 33.9754 46.1926 34.7299 47.2063L34.7697 31.5263C32.9314 34.0832 31.6568 37.0732 30.7773 40.0802C30.8303 40.2448 30.9003 40.4358 31.0024 40.6608ZM30.6847 39.7531C30.6885 39.3578 30.6052 39.3635 30.6847 39.7531V39.7531Z" fill="#55F90D"/>
</g>
<defs>
<clipPath id="clip0">
<rect width="98" height="98" transform="matrix(-1 0 0 1 98 0)" fill="white"/>
</clipPath>
</defs>
</svg>
