<svg width="138" height="138" viewBox="0 0 138 138" fill="none" xmlns="http://www.w3.org/2000/svg">
<g clip-path="url(#clip0)">
<path d="M0.119564 98.7004C1.21487 91.9147 3.59344 85.0707 7.14509 79.1685C8.52988 84.0229 12.2911 87.8835 17.0936 89.3849C16.3871 90.8993 15.7736 92.4591 15.2378 94.047C17.6034 94.101 19.9863 94.0923 22.3433 94.0016C26.0937 88.8146 33.9401 85.9996 40.3413 90.9793C41.9357 87.5378 43.1325 84.0142 43.7741 80.3157C40.9311 80.4864 38.0902 80.7045 35.2688 81.0913C36.0897 79.2463 36.5455 77.2091 36.5455 75.0617C36.5455 72.3266 35.8024 69.7666 34.5126 67.5566C40.0151 66.9041 45.578 66.7118 51.0978 66.2603C54.8806 65.9492 57.7798 69.5895 57.8878 73.0525C58.214 82.6316 55.4423 91.5561 51.1064 99.9037C55.4552 103.399 59.5016 106.543 63.952 110.155C69.6186 104.49 76.1775 99.6099 82.7213 95.1898C86.1325 92.8869 90.1184 94.2479 93.0154 96.5206C101.895 103.486 110.778 110.459 119.657 117.431C121.003 118.489 121.843 119.671 122.269 120.887C124.775 120.887 127.279 120.887 129.783 120.887C140.74 120.887 140.74 137.87 129.783 137.87C108.272 137.87 86.7611 137.87 65.2504 137.87C60.1173 137.87 57.0064 135.28 55.2997 133.809C43.4566 123.56 35.8672 118.409 24.0197 108.159C23.741 107.921 23.4969 107.677 23.2593 107.435C17.7223 107.688 12.1463 107.549 6.659 107.292C1.91915 107.085 -0.593358 103.155 0.119564 98.7004ZM96.768 120.887C93.4259 118.263 90.0795 115.642 86.7417 113.024C83.3758 115.413 80.0316 118.012 77.02 120.887C83.6005 120.887 90.1853 120.887 96.768 120.887Z" fill="#55F90D"/>
<path d="M21.1939 87.4299C13.9049 87.4299 7.98113 81.4997 7.98113 74.2128C7.98113 66.9281 13.9113 61 21.1939 61C28.4765 61 34.4046 66.9302 34.4046 74.2128C34.4068 81.4997 28.4765 87.4299 21.1939 87.4299Z" fill="#55F90D"/>
</g>
<defs>
<clipPath id="clip0">
<rect width="138" height="138" transform="matrix(-1 0 0 1 138 0)" fill="white"/>
</clipPath>
</defs>
</svg>
